G04 (created by PCBNEW (2013-07-07 BZR 4022)-stable) date 1/30/2014 9:36:02 PM*
%MOIN*%
G04 Gerber Fmt 3.4, Leading zero omitted, Abs format*
%FSLAX34Y34*%
G01*
G70*
G90*
G04 APERTURE LIST*
%ADD10C,0.00590551*%
%ADD11C,0.011811*%
%ADD12C,0.055*%
%ADD13C,0.0393701*%
G04 APERTURE END LIST*
G54D10*
G54D11*
X88321Y-65045D02*
X87940Y-65045D01*
X88397Y-65273D02*
X88130Y-64473D01*
X87864Y-65273D01*
X87140Y-65273D02*
X87407Y-64892D01*
X87597Y-65273D02*
X87597Y-64473D01*
X87292Y-64473D01*
X87216Y-64511D01*
X87178Y-64550D01*
X87140Y-64626D01*
X87140Y-64740D01*
X87178Y-64816D01*
X87216Y-64854D01*
X87292Y-64892D01*
X87597Y-64892D01*
X86797Y-64854D02*
X86530Y-64854D01*
X86416Y-65273D02*
X86797Y-65273D01*
X86797Y-64473D01*
X86416Y-64473D01*
X86111Y-65045D02*
X85730Y-65045D01*
X86188Y-65273D02*
X85921Y-64473D01*
X85654Y-65273D01*
X84397Y-64473D02*
X84778Y-64473D01*
X84816Y-64854D01*
X84778Y-64816D01*
X84702Y-64778D01*
X84511Y-64778D01*
X84435Y-64816D01*
X84397Y-64854D01*
X84359Y-64930D01*
X84359Y-65121D01*
X84397Y-65197D01*
X84435Y-65235D01*
X84511Y-65273D01*
X84702Y-65273D01*
X84778Y-65235D01*
X84816Y-65197D01*
X83635Y-64473D02*
X84016Y-64473D01*
X84054Y-64854D01*
X84016Y-64816D01*
X83940Y-64778D01*
X83750Y-64778D01*
X83673Y-64816D01*
X83635Y-64854D01*
X83597Y-64930D01*
X83597Y-65121D01*
X83635Y-65197D01*
X83673Y-65235D01*
X83750Y-65273D01*
X83940Y-65273D01*
X84016Y-65235D01*
X84054Y-65197D01*
X82873Y-64473D02*
X83254Y-64473D01*
X83292Y-64854D01*
X83254Y-64816D01*
X83178Y-64778D01*
X82988Y-64778D01*
X82911Y-64816D01*
X82873Y-64854D01*
X82835Y-64930D01*
X82835Y-65121D01*
X82873Y-65197D01*
X82911Y-65235D01*
X82988Y-65273D01*
X83178Y-65273D01*
X83254Y-65235D01*
X83292Y-65197D01*
X81654Y-65578D02*
X81692Y-65540D01*
X81769Y-65426D01*
X81807Y-65350D01*
X81845Y-65235D01*
X81883Y-65045D01*
X81883Y-64892D01*
X81845Y-64702D01*
X81807Y-64588D01*
X81769Y-64511D01*
X81692Y-64397D01*
X81654Y-64359D01*
X80892Y-65197D02*
X80930Y-65235D01*
X81045Y-65273D01*
X81121Y-65273D01*
X81235Y-65235D01*
X81311Y-65159D01*
X81350Y-65083D01*
X81388Y-64930D01*
X81388Y-64816D01*
X81350Y-64664D01*
X81311Y-64588D01*
X81235Y-64511D01*
X81121Y-64473D01*
X81045Y-64473D01*
X80930Y-64511D01*
X80892Y-64550D01*
X80550Y-64854D02*
X80283Y-64854D01*
X80169Y-65273D02*
X80550Y-65273D01*
X80550Y-64473D01*
X80169Y-64473D01*
X78797Y-65273D02*
X79254Y-65273D01*
X79026Y-65273D02*
X79026Y-64473D01*
X79102Y-64588D01*
X79178Y-64664D01*
X79254Y-64702D01*
X78492Y-65045D02*
X78111Y-65045D01*
X78569Y-65273D02*
X78302Y-64473D01*
X78035Y-65273D01*
X77845Y-65578D02*
X77807Y-65540D01*
X77730Y-65426D01*
X77692Y-65350D01*
X77654Y-65235D01*
X77616Y-65045D01*
X77616Y-64892D01*
X77654Y-64702D01*
X77692Y-64588D01*
X77730Y-64511D01*
X77807Y-64397D01*
X77845Y-64359D01*
G54D12*
X92700Y-48300D03*
X92700Y-49300D03*
X88500Y-48300D03*
X88500Y-49300D03*
X86200Y-48300D03*
X86200Y-49300D03*
X90600Y-48300D03*
X90600Y-49300D03*
X94900Y-48300D03*
X94900Y-49300D03*
G54D13*
X81200Y-47800D03*
X81200Y-48800D03*
X81200Y-49800D03*
X81200Y-50800D03*
X84300Y-50800D03*
X84300Y-49800D03*
X84300Y-48800D03*
X84300Y-47800D03*
X76900Y-47800D03*
X76900Y-48800D03*
X76900Y-49800D03*
X76900Y-50800D03*
X80000Y-50800D03*
X80000Y-49800D03*
X80000Y-48800D03*
X80000Y-47800D03*
M02*
