G04 (created by PCBNEW (2013-07-07 BZR 4022)-stable) date 1/30/2014 9:36:02 PM*
%MOIN*%
G04 Gerber Fmt 3.4, Leading zero omitted, Abs format*
%FSLAX34Y34*%
G01*
G70*
G90*
G04 APERTURE LIST*
%ADD10C,0.00590551*%
%ADD11R,0.08X0.06*%
%ADD12R,0.055X0.035*%
%ADD13R,0.045X0.025*%
%ADD14C,0.055*%
%ADD15R,0.05X0.015*%
%ADD16R,0.0709X0.0629*%
%ADD17R,0.0472X0.0472*%
%ADD18R,0.0314X0.0314*%
%ADD19C,0.0393701*%
%ADD20R,0.0688976X0.0255906*%
%ADD21R,0.065X0.12*%
%ADD22R,0.24X0.24*%
%ADD23R,0.0118X0.0512*%
%ADD24C,0.035*%
%ADD25C,0.01*%
%ADD26C,0.016*%
%ADD27C,0.018*%
%ADD28C,0.008*%
%ADD29C,0.014*%
G04 APERTURE END LIST*
G54D10*
G54D11*
X86200Y-55750D03*
X86200Y-57050D03*
X90600Y-55750D03*
X90600Y-57050D03*
X92700Y-55750D03*
X92700Y-57050D03*
X88500Y-55750D03*
X88500Y-57050D03*
X94900Y-55750D03*
X94900Y-57050D03*
G54D12*
X88500Y-53425D03*
X88500Y-54175D03*
X86200Y-53425D03*
X86200Y-54175D03*
X94900Y-53425D03*
X94900Y-54175D03*
X92700Y-53425D03*
X92700Y-54175D03*
X90600Y-53425D03*
X90600Y-54175D03*
G54D13*
X94900Y-50800D03*
X94900Y-51400D03*
X92700Y-50800D03*
X92700Y-51400D03*
X90600Y-50800D03*
X90600Y-51400D03*
X88500Y-50800D03*
X88500Y-51400D03*
X86200Y-50800D03*
X86200Y-51400D03*
G54D14*
X92700Y-48300D03*
X92700Y-49300D03*
X88500Y-48300D03*
X88500Y-49300D03*
X86200Y-48300D03*
X86200Y-49300D03*
X90600Y-48300D03*
X90600Y-49300D03*
X94900Y-48300D03*
X94900Y-49300D03*
G54D15*
X82650Y-52516D03*
X82650Y-52772D03*
X82650Y-53028D03*
X82650Y-53284D03*
X84350Y-53284D03*
X84350Y-53028D03*
X84350Y-52772D03*
X84350Y-52516D03*
X79850Y-52516D03*
X79850Y-52772D03*
X79850Y-53028D03*
X79850Y-53284D03*
X81550Y-53284D03*
X81550Y-53028D03*
X81550Y-52772D03*
X81550Y-52516D03*
G54D16*
X86200Y-64141D03*
X86200Y-65259D03*
X88500Y-64141D03*
X88500Y-65259D03*
X90600Y-64141D03*
X90600Y-65259D03*
X94900Y-64141D03*
X94900Y-65259D03*
X92700Y-64141D03*
X92700Y-65259D03*
G54D17*
X94900Y-61387D03*
X94900Y-62213D03*
X90600Y-61387D03*
X90600Y-62213D03*
X92700Y-61387D03*
X92700Y-62213D03*
X88500Y-61387D03*
X88500Y-62213D03*
X86200Y-61387D03*
X86200Y-62213D03*
G54D18*
X94900Y-58905D03*
X94900Y-59495D03*
X90600Y-58905D03*
X90600Y-59495D03*
X92700Y-58905D03*
X92700Y-59495D03*
X88500Y-58905D03*
X88500Y-59495D03*
X86200Y-58905D03*
X86200Y-59495D03*
G54D19*
X81200Y-47800D03*
X81200Y-48800D03*
X81200Y-49800D03*
X81200Y-50800D03*
X84300Y-50800D03*
X84300Y-49800D03*
X84300Y-48800D03*
X84300Y-47800D03*
X76900Y-47800D03*
X76900Y-48800D03*
X76900Y-49800D03*
X76900Y-50800D03*
X80000Y-50800D03*
X80000Y-49800D03*
X80000Y-48800D03*
X80000Y-47800D03*
G54D15*
X77150Y-52516D03*
X77150Y-52772D03*
X77150Y-53028D03*
X77150Y-53284D03*
X78850Y-53284D03*
X78850Y-53028D03*
X78850Y-52772D03*
X78850Y-52516D03*
G54D20*
X81600Y-55100D03*
X81600Y-55600D03*
X81600Y-56100D03*
X81600Y-56600D03*
X83804Y-56600D03*
X83804Y-56100D03*
X83804Y-55600D03*
X83804Y-55100D03*
X77400Y-55100D03*
X77400Y-55600D03*
X77400Y-56100D03*
X77400Y-56600D03*
X79604Y-56600D03*
X79604Y-56100D03*
X79604Y-55600D03*
X79604Y-55100D03*
G54D21*
X77900Y-61600D03*
G54D22*
X78800Y-59100D03*
G54D21*
X79700Y-61600D03*
X82000Y-61700D03*
G54D22*
X82900Y-59200D03*
G54D21*
X83800Y-61700D03*
G54D23*
X77240Y-65650D03*
X77490Y-65650D03*
X77750Y-65650D03*
X78000Y-65650D03*
X78260Y-65650D03*
X78515Y-65650D03*
X78770Y-65650D03*
X78770Y-63450D03*
X78515Y-63450D03*
X78260Y-63450D03*
X78000Y-63450D03*
X77745Y-63450D03*
X77490Y-63450D03*
X77235Y-63450D03*
X79790Y-65650D03*
X80040Y-65650D03*
X80300Y-65650D03*
X80550Y-65650D03*
X80810Y-65650D03*
X81065Y-65650D03*
X81320Y-65650D03*
X81320Y-63450D03*
X81065Y-63450D03*
X80810Y-63450D03*
X80550Y-63450D03*
X80295Y-63450D03*
X80040Y-63450D03*
X79785Y-63450D03*
X83140Y-65650D03*
X83390Y-65650D03*
X83650Y-65650D03*
X83900Y-65650D03*
X84160Y-65650D03*
X84415Y-65650D03*
X84670Y-65650D03*
X84670Y-63450D03*
X84415Y-63450D03*
X84160Y-63450D03*
X83900Y-63450D03*
X83645Y-63450D03*
X83390Y-63450D03*
X83135Y-63450D03*
G54D24*
X77400Y-55100D03*
X81200Y-47800D03*
X76900Y-47800D03*
X81000Y-55100D03*
X94900Y-65259D03*
X92700Y-65259D03*
X90600Y-65259D03*
X88500Y-65259D03*
X86200Y-65259D03*
X92700Y-57050D03*
X92700Y-58900D03*
X94900Y-57050D03*
X94900Y-58900D03*
X94900Y-59495D03*
X94900Y-61300D03*
X92700Y-59495D03*
X92700Y-61400D03*
X76900Y-49800D03*
X80000Y-49800D03*
X94900Y-62213D03*
X94900Y-64100D03*
X92700Y-49300D03*
X92700Y-50800D03*
X94900Y-49300D03*
X94900Y-50800D03*
X77400Y-56600D03*
X79600Y-56600D03*
X81600Y-56100D03*
X83800Y-56100D03*
X94900Y-51400D03*
X94900Y-53400D03*
X94900Y-54175D03*
X92700Y-51400D03*
X92700Y-53400D03*
X92700Y-54175D03*
X92700Y-55700D03*
X92700Y-62213D03*
X92700Y-64100D03*
X77400Y-56100D03*
X79600Y-56100D03*
X78300Y-50900D03*
X78400Y-48800D03*
X81200Y-48800D03*
X76900Y-48800D03*
X77400Y-55600D03*
X81600Y-55600D03*
X79604Y-55100D03*
X84300Y-47800D03*
X81100Y-47000D03*
X83804Y-55100D03*
G54D25*
X81600Y-55100D02*
X81000Y-55100D01*
G54D26*
X86200Y-57050D02*
X86200Y-58905D01*
X88500Y-57050D02*
X88500Y-58905D01*
X90600Y-57050D02*
X90600Y-58905D01*
X92700Y-58905D02*
X92700Y-58900D01*
X94900Y-58905D02*
X94900Y-58900D01*
G54D27*
X94900Y-61387D02*
X94900Y-61300D01*
X92700Y-61387D02*
X92700Y-61400D01*
X90600Y-59495D02*
X90600Y-61387D01*
X88500Y-59495D02*
X88500Y-61387D01*
X86200Y-59495D02*
X86200Y-61387D01*
G54D25*
X81550Y-52516D02*
X82650Y-52516D01*
X80000Y-49800D02*
X80200Y-49800D01*
X80200Y-49800D02*
X81200Y-50800D01*
X80000Y-49800D02*
X80000Y-48800D01*
X78850Y-53028D02*
X79850Y-53028D01*
X78850Y-52772D02*
X79850Y-52772D01*
X78850Y-52516D02*
X79850Y-52516D01*
X78850Y-53284D02*
X79850Y-53284D01*
X81550Y-52772D02*
X82650Y-52772D01*
X81550Y-53028D02*
X82650Y-53028D01*
X81550Y-53284D02*
X82650Y-53284D01*
X94900Y-64141D02*
X94900Y-64100D01*
G54D28*
X88500Y-49300D02*
X88500Y-50800D01*
X86200Y-49300D02*
X86200Y-50800D01*
G54D25*
X79604Y-56600D02*
X79600Y-56600D01*
X79604Y-56600D02*
X80700Y-56600D01*
X80700Y-56600D02*
X81200Y-56100D01*
X81200Y-56100D02*
X81600Y-56100D01*
X83800Y-56100D02*
X83804Y-56100D01*
X83804Y-56100D02*
X83804Y-55600D01*
G54D28*
X90600Y-49300D02*
X90600Y-50800D01*
G54D29*
X86200Y-54175D02*
X86200Y-55750D01*
G54D25*
X94900Y-53425D02*
X94900Y-53400D01*
X92700Y-53425D02*
X92700Y-53400D01*
G54D29*
X92700Y-55750D02*
X92700Y-55700D01*
G54D25*
X90600Y-51400D02*
X90600Y-53425D01*
G54D29*
X90600Y-54175D02*
X90600Y-55750D01*
G54D25*
X88500Y-51400D02*
X88500Y-53425D01*
G54D29*
X88500Y-54175D02*
X88500Y-55750D01*
G54D25*
X86200Y-51400D02*
X86200Y-53425D01*
X92700Y-64141D02*
X92700Y-64100D01*
X86200Y-62213D02*
X86200Y-64141D01*
X88500Y-62213D02*
X88500Y-64141D01*
X90600Y-62213D02*
X90600Y-64141D01*
X79604Y-56100D02*
X79600Y-56100D01*
X79604Y-56100D02*
X79604Y-55600D01*
X78300Y-50900D02*
X78400Y-50800D01*
X78400Y-50800D02*
X78400Y-48800D01*
X80300Y-47800D02*
X80000Y-47800D01*
X81100Y-47000D02*
X80300Y-47800D01*
M02*
