G04 (created by PCBNEW (2013-07-07 BZR 4022)-stable) date 1/30/2014 9:36:02 PM*
%MOIN*%
G04 Gerber Fmt 3.4, Leading zero omitted, Abs format*
%FSLAX34Y34*%
G01*
G70*
G90*
G04 APERTURE LIST*
%ADD10C,0.00590551*%
%ADD11C,0.055*%
%ADD12C,0.0393701*%
%ADD13C,0.035*%
%ADD14C,0.01*%
%ADD15C,0.016*%
%ADD16C,0.018*%
%ADD17C,0.008*%
%ADD18C,0.014*%
G04 APERTURE END LIST*
G54D10*
G54D11*
X92700Y-48300D03*
X92700Y-49300D03*
X88500Y-48300D03*
X88500Y-49300D03*
X86200Y-48300D03*
X86200Y-49300D03*
X90600Y-48300D03*
X90600Y-49300D03*
X94900Y-48300D03*
X94900Y-49300D03*
G54D12*
X81200Y-47800D03*
X81200Y-48800D03*
X81200Y-49800D03*
X81200Y-50800D03*
X84300Y-50800D03*
X84300Y-49800D03*
X84300Y-48800D03*
X84300Y-47800D03*
X76900Y-47800D03*
X76900Y-48800D03*
X76900Y-49800D03*
X76900Y-50800D03*
X80000Y-50800D03*
X80000Y-49800D03*
X80000Y-48800D03*
X80000Y-47800D03*
G54D13*
X77400Y-55100D03*
X81200Y-47800D03*
X76900Y-47800D03*
X81000Y-55100D03*
X94900Y-65259D03*
X92700Y-65259D03*
X90600Y-65259D03*
X88500Y-65259D03*
X86200Y-65259D03*
X92700Y-57050D03*
X92700Y-58900D03*
X94900Y-57050D03*
X94900Y-58900D03*
X94900Y-59495D03*
X94900Y-61300D03*
X92700Y-59495D03*
X92700Y-61400D03*
X76900Y-49800D03*
X80000Y-49800D03*
X94900Y-62213D03*
X94900Y-64100D03*
X92700Y-49300D03*
X92700Y-50800D03*
X94900Y-49300D03*
X94900Y-50800D03*
X77400Y-56600D03*
X79600Y-56600D03*
X81600Y-56100D03*
X83800Y-56100D03*
X94900Y-51400D03*
X94900Y-53400D03*
X94900Y-54175D03*
X92700Y-51400D03*
X92700Y-53400D03*
X92700Y-54175D03*
X92700Y-55700D03*
X92700Y-62213D03*
X92700Y-64100D03*
X77400Y-56100D03*
X79600Y-56100D03*
X78300Y-50900D03*
X78400Y-48800D03*
X81200Y-48800D03*
X76900Y-48800D03*
X77400Y-55600D03*
X81600Y-55600D03*
X79604Y-55100D03*
X84300Y-47800D03*
X81100Y-47000D03*
X83804Y-55100D03*
G54D14*
X81200Y-47800D02*
X80950Y-47800D01*
X77600Y-47100D02*
X76900Y-47800D01*
X80250Y-47100D02*
X77600Y-47100D01*
X80950Y-47800D02*
X80250Y-47100D01*
X94900Y-65259D02*
X94900Y-65300D01*
X92700Y-65259D02*
X92700Y-65300D01*
X90600Y-65259D02*
X90600Y-65300D01*
X88400Y-65300D02*
X88459Y-65300D01*
X88459Y-65300D02*
X88500Y-65259D01*
X86200Y-65259D02*
X86200Y-65300D01*
G54D15*
X92700Y-58900D02*
X92700Y-57050D01*
X94900Y-58900D02*
X94900Y-57050D01*
G54D16*
X94900Y-61300D02*
X94900Y-59495D01*
X92700Y-61400D02*
X92700Y-59495D01*
G54D14*
X76900Y-49800D02*
X80000Y-49800D01*
X94900Y-64100D02*
X94900Y-62213D01*
G54D17*
X92700Y-49300D02*
X92700Y-50800D01*
X94900Y-49300D02*
X94900Y-50800D01*
G54D14*
X79600Y-56600D02*
X77400Y-56600D01*
X81600Y-56100D02*
X83800Y-56100D01*
X94900Y-53400D02*
X94900Y-51400D01*
G54D18*
X94900Y-54175D02*
X94900Y-55800D01*
G54D14*
X92700Y-53400D02*
X92700Y-51400D01*
G54D18*
X92700Y-55700D02*
X92700Y-54175D01*
G54D14*
X92700Y-64100D02*
X92700Y-62213D01*
X79600Y-56100D02*
X77400Y-56100D01*
X80600Y-48200D02*
X79000Y-48200D01*
X81200Y-48800D02*
X80600Y-48200D01*
X79000Y-48200D02*
X78400Y-48800D01*
X78400Y-55600D02*
X78400Y-53400D01*
X78400Y-53400D02*
X78300Y-53300D01*
X78300Y-53300D02*
X78300Y-50900D01*
X78400Y-48800D02*
X76900Y-48800D01*
X77400Y-55600D02*
X78400Y-55600D01*
X78400Y-55600D02*
X81600Y-55600D01*
X82600Y-47000D02*
X82600Y-52104D01*
X82600Y-52104D02*
X79604Y-55100D01*
X84300Y-47800D02*
X83500Y-47000D01*
X83500Y-47000D02*
X82600Y-47000D01*
X82600Y-47000D02*
X81100Y-47000D01*
X83804Y-55100D02*
X81600Y-55100D01*
G54D10*
G36*
X77350Y-48500D02*
X77231Y-48500D01*
X77153Y-48421D01*
X77140Y-48415D01*
X76989Y-48353D01*
X76811Y-48353D01*
X76647Y-48420D01*
X76579Y-48488D01*
X76579Y-48122D01*
X76613Y-48156D01*
X76659Y-48111D01*
X76674Y-48195D01*
X76842Y-48252D01*
X77020Y-48239D01*
X77125Y-48195D01*
X77140Y-48111D01*
X76900Y-47870D01*
X76894Y-47876D01*
X76823Y-47805D01*
X76829Y-47800D01*
X76823Y-47794D01*
X76894Y-47723D01*
X76900Y-47729D01*
X77140Y-47488D01*
X77125Y-47404D01*
X76957Y-47347D01*
X76779Y-47360D01*
X76674Y-47404D01*
X76659Y-47488D01*
X76613Y-47443D01*
X76579Y-47477D01*
X76579Y-46979D01*
X77350Y-46979D01*
X77350Y-47828D01*
X77339Y-47679D01*
X77295Y-47574D01*
X77211Y-47559D01*
X77140Y-47630D01*
X76970Y-47800D01*
X77211Y-48040D01*
X77295Y-48025D01*
X77350Y-47863D01*
X77350Y-48500D01*
X77350Y-48500D01*
G37*
G54D14*
X77350Y-48500D02*
X77231Y-48500D01*
X77153Y-48421D01*
X77140Y-48415D01*
X76989Y-48353D01*
X76811Y-48353D01*
X76647Y-48420D01*
X76579Y-48488D01*
X76579Y-48122D01*
X76613Y-48156D01*
X76659Y-48111D01*
X76674Y-48195D01*
X76842Y-48252D01*
X77020Y-48239D01*
X77125Y-48195D01*
X77140Y-48111D01*
X76900Y-47870D01*
X76894Y-47876D01*
X76823Y-47805D01*
X76829Y-47800D01*
X76823Y-47794D01*
X76894Y-47723D01*
X76900Y-47729D01*
X77140Y-47488D01*
X77125Y-47404D01*
X76957Y-47347D01*
X76779Y-47360D01*
X76674Y-47404D01*
X76659Y-47488D01*
X76613Y-47443D01*
X76579Y-47477D01*
X76579Y-46979D01*
X77350Y-46979D01*
X77350Y-47828D01*
X77339Y-47679D01*
X77295Y-47574D01*
X77211Y-47559D01*
X77140Y-47630D01*
X76970Y-47800D01*
X77211Y-48040D01*
X77295Y-48025D01*
X77350Y-47863D01*
X77350Y-48500D01*
G54D10*
G36*
X81550Y-48518D02*
X81453Y-48421D01*
X81289Y-48353D01*
X81177Y-48353D01*
X81042Y-48218D01*
X81142Y-48252D01*
X81320Y-48239D01*
X81425Y-48195D01*
X81440Y-48111D01*
X81200Y-47870D01*
X81194Y-47876D01*
X81123Y-47805D01*
X81129Y-47800D01*
X80888Y-47559D01*
X80804Y-47574D01*
X80747Y-47742D01*
X80760Y-47920D01*
X80779Y-47966D01*
X80714Y-47922D01*
X80600Y-47900D01*
X80442Y-47900D01*
X80446Y-47889D01*
X80446Y-47711D01*
X80379Y-47547D01*
X80253Y-47421D01*
X80089Y-47353D01*
X79911Y-47353D01*
X79747Y-47420D01*
X79621Y-47546D01*
X79553Y-47710D01*
X79553Y-47888D01*
X79557Y-47900D01*
X79550Y-47900D01*
X79550Y-46979D01*
X80675Y-46979D01*
X80674Y-47084D01*
X80739Y-47240D01*
X80858Y-47360D01*
X80973Y-47407D01*
X80959Y-47488D01*
X81200Y-47729D01*
X81440Y-47488D01*
X81425Y-47404D01*
X81319Y-47368D01*
X81340Y-47360D01*
X81401Y-47300D01*
X81550Y-47300D01*
X81550Y-47566D01*
X81511Y-47559D01*
X81270Y-47800D01*
X81511Y-48040D01*
X81550Y-48033D01*
X81550Y-48518D01*
X81550Y-48518D01*
G37*
G54D14*
X81550Y-48518D02*
X81453Y-48421D01*
X81289Y-48353D01*
X81177Y-48353D01*
X81042Y-48218D01*
X81142Y-48252D01*
X81320Y-48239D01*
X81425Y-48195D01*
X81440Y-48111D01*
X81200Y-47870D01*
X81194Y-47876D01*
X81123Y-47805D01*
X81129Y-47800D01*
X80888Y-47559D01*
X80804Y-47574D01*
X80747Y-47742D01*
X80760Y-47920D01*
X80779Y-47966D01*
X80714Y-47922D01*
X80600Y-47900D01*
X80442Y-47900D01*
X80446Y-47889D01*
X80446Y-47711D01*
X80379Y-47547D01*
X80253Y-47421D01*
X80089Y-47353D01*
X79911Y-47353D01*
X79747Y-47420D01*
X79621Y-47546D01*
X79553Y-47710D01*
X79553Y-47888D01*
X79557Y-47900D01*
X79550Y-47900D01*
X79550Y-46979D01*
X80675Y-46979D01*
X80674Y-47084D01*
X80739Y-47240D01*
X80858Y-47360D01*
X80973Y-47407D01*
X80959Y-47488D01*
X81200Y-47729D01*
X81440Y-47488D01*
X81425Y-47404D01*
X81319Y-47368D01*
X81340Y-47360D01*
X81401Y-47300D01*
X81550Y-47300D01*
X81550Y-47566D01*
X81511Y-47559D01*
X81270Y-47800D01*
X81511Y-48040D01*
X81550Y-48033D01*
X81550Y-48518D01*
G54D10*
G36*
X96020Y-66420D02*
X95425Y-66420D01*
X95425Y-49196D01*
X95345Y-49003D01*
X95197Y-48855D01*
X95064Y-48799D01*
X95197Y-48745D01*
X95344Y-48597D01*
X95424Y-48404D01*
X95425Y-48196D01*
X95345Y-48003D01*
X95197Y-47855D01*
X95004Y-47775D01*
X94796Y-47774D01*
X94603Y-47854D01*
X94455Y-48002D01*
X94375Y-48195D01*
X94374Y-48403D01*
X94454Y-48597D01*
X94602Y-48744D01*
X94735Y-48800D01*
X94603Y-48854D01*
X94455Y-49002D01*
X94375Y-49195D01*
X94374Y-49403D01*
X94454Y-49597D01*
X94602Y-49744D01*
X94610Y-49748D01*
X94610Y-50488D01*
X94539Y-50558D01*
X94475Y-50715D01*
X94474Y-50884D01*
X94539Y-51040D01*
X94598Y-51099D01*
X94539Y-51158D01*
X94475Y-51315D01*
X94474Y-51484D01*
X94539Y-51640D01*
X94600Y-51701D01*
X94600Y-53098D01*
X94539Y-53158D01*
X94475Y-53315D01*
X94474Y-53484D01*
X94539Y-53640D01*
X94658Y-53760D01*
X94724Y-53787D01*
X94659Y-53814D01*
X94539Y-53933D01*
X94475Y-54090D01*
X94474Y-54259D01*
X94539Y-54415D01*
X94580Y-54456D01*
X94580Y-55800D01*
X94604Y-55922D01*
X94673Y-56026D01*
X94777Y-56095D01*
X94900Y-56120D01*
X95022Y-56095D01*
X95126Y-56026D01*
X95195Y-55922D01*
X95220Y-55800D01*
X95220Y-54456D01*
X95260Y-54416D01*
X95324Y-54259D01*
X95325Y-54090D01*
X95260Y-53934D01*
X95141Y-53814D01*
X95075Y-53787D01*
X95140Y-53760D01*
X95260Y-53641D01*
X95324Y-53484D01*
X95325Y-53315D01*
X95260Y-53159D01*
X95200Y-53098D01*
X95200Y-51701D01*
X95260Y-51641D01*
X95324Y-51484D01*
X95325Y-51315D01*
X95260Y-51159D01*
X95201Y-51100D01*
X95260Y-51041D01*
X95324Y-50884D01*
X95325Y-50715D01*
X95260Y-50559D01*
X95190Y-50488D01*
X95190Y-49748D01*
X95197Y-49745D01*
X95344Y-49597D01*
X95424Y-49404D01*
X95425Y-49196D01*
X95425Y-66420D01*
X95325Y-66420D01*
X95325Y-64015D01*
X95260Y-63859D01*
X95200Y-63798D01*
X95200Y-62514D01*
X95260Y-62454D01*
X95324Y-62297D01*
X95325Y-62128D01*
X95325Y-61215D01*
X95260Y-61059D01*
X95240Y-61039D01*
X95240Y-59756D01*
X95260Y-59736D01*
X95324Y-59579D01*
X95325Y-59410D01*
X95260Y-59254D01*
X95203Y-59197D01*
X95260Y-59141D01*
X95324Y-58984D01*
X95325Y-58815D01*
X95260Y-58659D01*
X95230Y-58629D01*
X95230Y-57321D01*
X95260Y-57291D01*
X95324Y-57134D01*
X95325Y-56965D01*
X95260Y-56809D01*
X95141Y-56689D01*
X94984Y-56625D01*
X94815Y-56624D01*
X94659Y-56689D01*
X94539Y-56808D01*
X94475Y-56965D01*
X94474Y-57134D01*
X94539Y-57290D01*
X94570Y-57320D01*
X94570Y-58628D01*
X94539Y-58658D01*
X94475Y-58815D01*
X94474Y-58984D01*
X94539Y-59140D01*
X94596Y-59197D01*
X94539Y-59253D01*
X94475Y-59410D01*
X94474Y-59579D01*
X94539Y-59735D01*
X94560Y-59755D01*
X94560Y-61038D01*
X94539Y-61058D01*
X94475Y-61215D01*
X94474Y-61384D01*
X94539Y-61540D01*
X94658Y-61660D01*
X94815Y-61724D01*
X94984Y-61725D01*
X95140Y-61660D01*
X95260Y-61541D01*
X95324Y-61384D01*
X95325Y-61215D01*
X95325Y-62128D01*
X95260Y-61972D01*
X95141Y-61852D01*
X94984Y-61788D01*
X94815Y-61787D01*
X94659Y-61852D01*
X94539Y-61971D01*
X94475Y-62128D01*
X94474Y-62297D01*
X94539Y-62453D01*
X94600Y-62514D01*
X94600Y-63798D01*
X94539Y-63858D01*
X94475Y-64015D01*
X94474Y-64184D01*
X94539Y-64340D01*
X94658Y-64460D01*
X94815Y-64524D01*
X94984Y-64525D01*
X95140Y-64460D01*
X95260Y-64341D01*
X95324Y-64184D01*
X95325Y-64015D01*
X95325Y-66420D01*
X93225Y-66420D01*
X93225Y-49196D01*
X93145Y-49003D01*
X92997Y-48855D01*
X92864Y-48799D01*
X92997Y-48745D01*
X93144Y-48597D01*
X93224Y-48404D01*
X93225Y-48196D01*
X93145Y-48003D01*
X92997Y-47855D01*
X92804Y-47775D01*
X92596Y-47774D01*
X92403Y-47854D01*
X92255Y-48002D01*
X92175Y-48195D01*
X92174Y-48403D01*
X92254Y-48597D01*
X92402Y-48744D01*
X92535Y-48800D01*
X92403Y-48854D01*
X92255Y-49002D01*
X92175Y-49195D01*
X92174Y-49403D01*
X92254Y-49597D01*
X92402Y-49744D01*
X92410Y-49748D01*
X92410Y-50488D01*
X92339Y-50558D01*
X92275Y-50715D01*
X92274Y-50884D01*
X92339Y-51040D01*
X92398Y-51099D01*
X92339Y-51158D01*
X92275Y-51315D01*
X92274Y-51484D01*
X92339Y-51640D01*
X92400Y-51701D01*
X92400Y-53098D01*
X92339Y-53158D01*
X92275Y-53315D01*
X92274Y-53484D01*
X92339Y-53640D01*
X92458Y-53760D01*
X92524Y-53787D01*
X92459Y-53814D01*
X92339Y-53933D01*
X92275Y-54090D01*
X92274Y-54259D01*
X92339Y-54415D01*
X92380Y-54456D01*
X92380Y-55418D01*
X92339Y-55458D01*
X92275Y-55615D01*
X92274Y-55784D01*
X92339Y-55940D01*
X92458Y-56060D01*
X92615Y-56124D01*
X92784Y-56125D01*
X92940Y-56060D01*
X93060Y-55941D01*
X93124Y-55784D01*
X93125Y-55615D01*
X93060Y-55459D01*
X93020Y-55418D01*
X93020Y-54456D01*
X93060Y-54416D01*
X93124Y-54259D01*
X93125Y-54090D01*
X93060Y-53934D01*
X92941Y-53814D01*
X92875Y-53787D01*
X92940Y-53760D01*
X93060Y-53641D01*
X93124Y-53484D01*
X93125Y-53315D01*
X93060Y-53159D01*
X93000Y-53098D01*
X93000Y-51701D01*
X93060Y-51641D01*
X93124Y-51484D01*
X93125Y-51315D01*
X93060Y-51159D01*
X93001Y-51100D01*
X93060Y-51041D01*
X93124Y-50884D01*
X93125Y-50715D01*
X93060Y-50559D01*
X92990Y-50488D01*
X92990Y-49748D01*
X92997Y-49745D01*
X93144Y-49597D01*
X93224Y-49404D01*
X93225Y-49196D01*
X93225Y-66420D01*
X93125Y-66420D01*
X93125Y-64015D01*
X93060Y-63859D01*
X93000Y-63798D01*
X93000Y-62514D01*
X93060Y-62454D01*
X93124Y-62297D01*
X93125Y-62128D01*
X93060Y-61972D01*
X92941Y-61852D01*
X92829Y-61806D01*
X92940Y-61760D01*
X93060Y-61641D01*
X93124Y-61484D01*
X93125Y-61315D01*
X93060Y-61159D01*
X93040Y-61139D01*
X93040Y-59756D01*
X93060Y-59736D01*
X93124Y-59579D01*
X93125Y-59410D01*
X93060Y-59254D01*
X93003Y-59197D01*
X93060Y-59141D01*
X93124Y-58984D01*
X93125Y-58815D01*
X93060Y-58659D01*
X93030Y-58629D01*
X93030Y-57321D01*
X93060Y-57291D01*
X93124Y-57134D01*
X93125Y-56965D01*
X93060Y-56809D01*
X92941Y-56689D01*
X92784Y-56625D01*
X92615Y-56624D01*
X92459Y-56689D01*
X92339Y-56808D01*
X92275Y-56965D01*
X92274Y-57134D01*
X92339Y-57290D01*
X92370Y-57320D01*
X92370Y-58628D01*
X92339Y-58658D01*
X92275Y-58815D01*
X92274Y-58984D01*
X92339Y-59140D01*
X92396Y-59197D01*
X92339Y-59253D01*
X92275Y-59410D01*
X92274Y-59579D01*
X92339Y-59735D01*
X92360Y-59755D01*
X92360Y-61138D01*
X92339Y-61158D01*
X92275Y-61315D01*
X92274Y-61484D01*
X92339Y-61640D01*
X92458Y-61760D01*
X92570Y-61806D01*
X92459Y-61852D01*
X92339Y-61971D01*
X92275Y-62128D01*
X92274Y-62297D01*
X92339Y-62453D01*
X92400Y-62514D01*
X92400Y-63798D01*
X92339Y-63858D01*
X92275Y-64015D01*
X92274Y-64184D01*
X92339Y-64340D01*
X92458Y-64460D01*
X92615Y-64524D01*
X92784Y-64525D01*
X92940Y-64460D01*
X93060Y-64341D01*
X93124Y-64184D01*
X93125Y-64015D01*
X93125Y-66420D01*
X91125Y-66420D01*
X91125Y-49196D01*
X91045Y-49003D01*
X90897Y-48855D01*
X90764Y-48799D01*
X90897Y-48745D01*
X91044Y-48597D01*
X91124Y-48404D01*
X91125Y-48196D01*
X91045Y-48003D01*
X90897Y-47855D01*
X90704Y-47775D01*
X90496Y-47774D01*
X90303Y-47854D01*
X90155Y-48002D01*
X90075Y-48195D01*
X90074Y-48403D01*
X90154Y-48597D01*
X90302Y-48744D01*
X90435Y-48800D01*
X90303Y-48854D01*
X90155Y-49002D01*
X90075Y-49195D01*
X90074Y-49403D01*
X90154Y-49597D01*
X90302Y-49744D01*
X90495Y-49824D01*
X90703Y-49825D01*
X90897Y-49745D01*
X91044Y-49597D01*
X91124Y-49404D01*
X91125Y-49196D01*
X91125Y-66420D01*
X89025Y-66420D01*
X89025Y-49196D01*
X88945Y-49003D01*
X88797Y-48855D01*
X88664Y-48799D01*
X88797Y-48745D01*
X88944Y-48597D01*
X89024Y-48404D01*
X89025Y-48196D01*
X88945Y-48003D01*
X88797Y-47855D01*
X88604Y-47775D01*
X88396Y-47774D01*
X88203Y-47854D01*
X88055Y-48002D01*
X87975Y-48195D01*
X87974Y-48403D01*
X88054Y-48597D01*
X88202Y-48744D01*
X88335Y-48800D01*
X88203Y-48854D01*
X88055Y-49002D01*
X87975Y-49195D01*
X87974Y-49403D01*
X88054Y-49597D01*
X88202Y-49744D01*
X88395Y-49824D01*
X88603Y-49825D01*
X88797Y-49745D01*
X88944Y-49597D01*
X89024Y-49404D01*
X89025Y-49196D01*
X89025Y-66420D01*
X86725Y-66420D01*
X86725Y-49196D01*
X86645Y-49003D01*
X86497Y-48855D01*
X86364Y-48799D01*
X86497Y-48745D01*
X86644Y-48597D01*
X86724Y-48404D01*
X86725Y-48196D01*
X86645Y-48003D01*
X86497Y-47855D01*
X86304Y-47775D01*
X86096Y-47774D01*
X85903Y-47854D01*
X85755Y-48002D01*
X85675Y-48195D01*
X85674Y-48403D01*
X85754Y-48597D01*
X85902Y-48744D01*
X86035Y-48800D01*
X85903Y-48854D01*
X85755Y-49002D01*
X85675Y-49195D01*
X85674Y-49403D01*
X85754Y-49597D01*
X85902Y-49744D01*
X86095Y-49824D01*
X86303Y-49825D01*
X86497Y-49745D01*
X86644Y-49597D01*
X86724Y-49404D01*
X86725Y-49196D01*
X86725Y-66420D01*
X84746Y-66420D01*
X84746Y-50711D01*
X84746Y-49711D01*
X84746Y-48711D01*
X84679Y-48547D01*
X84553Y-48421D01*
X84389Y-48353D01*
X84211Y-48353D01*
X84047Y-48420D01*
X83921Y-48546D01*
X83853Y-48710D01*
X83853Y-48888D01*
X83920Y-49052D01*
X84046Y-49178D01*
X84210Y-49246D01*
X84388Y-49246D01*
X84552Y-49179D01*
X84678Y-49053D01*
X84746Y-48889D01*
X84746Y-48711D01*
X84746Y-49711D01*
X84679Y-49547D01*
X84553Y-49421D01*
X84389Y-49353D01*
X84211Y-49353D01*
X84047Y-49420D01*
X83921Y-49546D01*
X83853Y-49710D01*
X83853Y-49888D01*
X83920Y-50052D01*
X84046Y-50178D01*
X84210Y-50246D01*
X84388Y-50246D01*
X84552Y-50179D01*
X84678Y-50053D01*
X84746Y-49889D01*
X84746Y-49711D01*
X84746Y-50711D01*
X84679Y-50547D01*
X84553Y-50421D01*
X84389Y-50353D01*
X84211Y-50353D01*
X84047Y-50420D01*
X83921Y-50546D01*
X83853Y-50710D01*
X83853Y-50888D01*
X83920Y-51052D01*
X84046Y-51178D01*
X84210Y-51246D01*
X84388Y-51246D01*
X84552Y-51179D01*
X84678Y-51053D01*
X84746Y-50889D01*
X84746Y-50711D01*
X84746Y-66420D01*
X76579Y-66420D01*
X76579Y-51111D01*
X76646Y-51178D01*
X76810Y-51246D01*
X76988Y-51246D01*
X77152Y-51179D01*
X77278Y-51053D01*
X77346Y-50889D01*
X77346Y-50711D01*
X77279Y-50547D01*
X77153Y-50421D01*
X76989Y-50353D01*
X76811Y-50353D01*
X76647Y-50420D01*
X76579Y-50488D01*
X76579Y-50111D01*
X76646Y-50178D01*
X76810Y-50246D01*
X76988Y-50246D01*
X77152Y-50179D01*
X77231Y-50100D01*
X77350Y-50100D01*
X77350Y-51150D01*
X77949Y-51150D01*
X78000Y-51201D01*
X78000Y-53300D01*
X78022Y-53414D01*
X78087Y-53512D01*
X78100Y-53524D01*
X78100Y-55300D01*
X77701Y-55300D01*
X77641Y-55239D01*
X77484Y-55175D01*
X77315Y-55174D01*
X77159Y-55239D01*
X77039Y-55358D01*
X76975Y-55515D01*
X76974Y-55684D01*
X77039Y-55840D01*
X77048Y-55849D01*
X77039Y-55858D01*
X76975Y-56015D01*
X76974Y-56184D01*
X77039Y-56340D01*
X77048Y-56349D01*
X77039Y-56358D01*
X76975Y-56515D01*
X76974Y-56684D01*
X77039Y-56840D01*
X77158Y-56960D01*
X77315Y-57024D01*
X77484Y-57025D01*
X77640Y-56960D01*
X77701Y-56900D01*
X79298Y-56900D01*
X79358Y-56960D01*
X79515Y-57024D01*
X79684Y-57025D01*
X79840Y-56960D01*
X79960Y-56841D01*
X80024Y-56684D01*
X80025Y-56515D01*
X79960Y-56359D01*
X79951Y-56350D01*
X79960Y-56341D01*
X80024Y-56184D01*
X80025Y-56015D01*
X79977Y-55900D01*
X81222Y-55900D01*
X81175Y-56015D01*
X81174Y-56184D01*
X81239Y-56340D01*
X81358Y-56460D01*
X81515Y-56524D01*
X81684Y-56525D01*
X81840Y-56460D01*
X81901Y-56400D01*
X83498Y-56400D01*
X83558Y-56460D01*
X83715Y-56524D01*
X83884Y-56525D01*
X84040Y-56460D01*
X84160Y-56341D01*
X84224Y-56184D01*
X84225Y-56015D01*
X84160Y-55859D01*
X84041Y-55739D01*
X83884Y-55675D01*
X83715Y-55674D01*
X83559Y-55739D01*
X83498Y-55800D01*
X81977Y-55800D01*
X82024Y-55684D01*
X82025Y-55515D01*
X81977Y-55400D01*
X83503Y-55400D01*
X83563Y-55460D01*
X83719Y-55524D01*
X83888Y-55525D01*
X84045Y-55460D01*
X84164Y-55341D01*
X84229Y-55184D01*
X84229Y-55015D01*
X84165Y-54859D01*
X84045Y-54739D01*
X83889Y-54675D01*
X83720Y-54674D01*
X83564Y-54739D01*
X83503Y-54800D01*
X81600Y-54800D01*
X81485Y-54822D01*
X81387Y-54887D01*
X81322Y-54985D01*
X81300Y-55100D01*
X81322Y-55214D01*
X81347Y-55251D01*
X81298Y-55300D01*
X79981Y-55300D01*
X80029Y-55184D01*
X80029Y-55099D01*
X82812Y-52316D01*
X82812Y-52316D01*
X82877Y-52219D01*
X82899Y-52104D01*
X82900Y-52104D01*
X82900Y-51150D01*
X83850Y-51150D01*
X83850Y-47774D01*
X83853Y-47777D01*
X83853Y-47888D01*
X83920Y-48052D01*
X84046Y-48178D01*
X84210Y-48246D01*
X84388Y-48246D01*
X84552Y-48179D01*
X84678Y-48053D01*
X84746Y-47889D01*
X84746Y-47711D01*
X84679Y-47547D01*
X84553Y-47421D01*
X84389Y-47353D01*
X84277Y-47353D01*
X83903Y-46979D01*
X96020Y-46979D01*
X96020Y-66420D01*
X96020Y-66420D01*
G37*
G54D14*
X96020Y-66420D02*
X95425Y-66420D01*
X95425Y-49196D01*
X95345Y-49003D01*
X95197Y-48855D01*
X95064Y-48799D01*
X95197Y-48745D01*
X95344Y-48597D01*
X95424Y-48404D01*
X95425Y-48196D01*
X95345Y-48003D01*
X95197Y-47855D01*
X95004Y-47775D01*
X94796Y-47774D01*
X94603Y-47854D01*
X94455Y-48002D01*
X94375Y-48195D01*
X94374Y-48403D01*
X94454Y-48597D01*
X94602Y-48744D01*
X94735Y-48800D01*
X94603Y-48854D01*
X94455Y-49002D01*
X94375Y-49195D01*
X94374Y-49403D01*
X94454Y-49597D01*
X94602Y-49744D01*
X94610Y-49748D01*
X94610Y-50488D01*
X94539Y-50558D01*
X94475Y-50715D01*
X94474Y-50884D01*
X94539Y-51040D01*
X94598Y-51099D01*
X94539Y-51158D01*
X94475Y-51315D01*
X94474Y-51484D01*
X94539Y-51640D01*
X94600Y-51701D01*
X94600Y-53098D01*
X94539Y-53158D01*
X94475Y-53315D01*
X94474Y-53484D01*
X94539Y-53640D01*
X94658Y-53760D01*
X94724Y-53787D01*
X94659Y-53814D01*
X94539Y-53933D01*
X94475Y-54090D01*
X94474Y-54259D01*
X94539Y-54415D01*
X94580Y-54456D01*
X94580Y-55800D01*
X94604Y-55922D01*
X94673Y-56026D01*
X94777Y-56095D01*
X94900Y-56120D01*
X95022Y-56095D01*
X95126Y-56026D01*
X95195Y-55922D01*
X95220Y-55800D01*
X95220Y-54456D01*
X95260Y-54416D01*
X95324Y-54259D01*
X95325Y-54090D01*
X95260Y-53934D01*
X95141Y-53814D01*
X95075Y-53787D01*
X95140Y-53760D01*
X95260Y-53641D01*
X95324Y-53484D01*
X95325Y-53315D01*
X95260Y-53159D01*
X95200Y-53098D01*
X95200Y-51701D01*
X95260Y-51641D01*
X95324Y-51484D01*
X95325Y-51315D01*
X95260Y-51159D01*
X95201Y-51100D01*
X95260Y-51041D01*
X95324Y-50884D01*
X95325Y-50715D01*
X95260Y-50559D01*
X95190Y-50488D01*
X95190Y-49748D01*
X95197Y-49745D01*
X95344Y-49597D01*
X95424Y-49404D01*
X95425Y-49196D01*
X95425Y-66420D01*
X95325Y-66420D01*
X95325Y-64015D01*
X95260Y-63859D01*
X95200Y-63798D01*
X95200Y-62514D01*
X95260Y-62454D01*
X95324Y-62297D01*
X95325Y-62128D01*
X95325Y-61215D01*
X95260Y-61059D01*
X95240Y-61039D01*
X95240Y-59756D01*
X95260Y-59736D01*
X95324Y-59579D01*
X95325Y-59410D01*
X95260Y-59254D01*
X95203Y-59197D01*
X95260Y-59141D01*
X95324Y-58984D01*
X95325Y-58815D01*
X95260Y-58659D01*
X95230Y-58629D01*
X95230Y-57321D01*
X95260Y-57291D01*
X95324Y-57134D01*
X95325Y-56965D01*
X95260Y-56809D01*
X95141Y-56689D01*
X94984Y-56625D01*
X94815Y-56624D01*
X94659Y-56689D01*
X94539Y-56808D01*
X94475Y-56965D01*
X94474Y-57134D01*
X94539Y-57290D01*
X94570Y-57320D01*
X94570Y-58628D01*
X94539Y-58658D01*
X94475Y-58815D01*
X94474Y-58984D01*
X94539Y-59140D01*
X94596Y-59197D01*
X94539Y-59253D01*
X94475Y-59410D01*
X94474Y-59579D01*
X94539Y-59735D01*
X94560Y-59755D01*
X94560Y-61038D01*
X94539Y-61058D01*
X94475Y-61215D01*
X94474Y-61384D01*
X94539Y-61540D01*
X94658Y-61660D01*
X94815Y-61724D01*
X94984Y-61725D01*
X95140Y-61660D01*
X95260Y-61541D01*
X95324Y-61384D01*
X95325Y-61215D01*
X95325Y-62128D01*
X95260Y-61972D01*
X95141Y-61852D01*
X94984Y-61788D01*
X94815Y-61787D01*
X94659Y-61852D01*
X94539Y-61971D01*
X94475Y-62128D01*
X94474Y-62297D01*
X94539Y-62453D01*
X94600Y-62514D01*
X94600Y-63798D01*
X94539Y-63858D01*
X94475Y-64015D01*
X94474Y-64184D01*
X94539Y-64340D01*
X94658Y-64460D01*
X94815Y-64524D01*
X94984Y-64525D01*
X95140Y-64460D01*
X95260Y-64341D01*
X95324Y-64184D01*
X95325Y-64015D01*
X95325Y-66420D01*
X93225Y-66420D01*
X93225Y-49196D01*
X93145Y-49003D01*
X92997Y-48855D01*
X92864Y-48799D01*
X92997Y-48745D01*
X93144Y-48597D01*
X93224Y-48404D01*
X93225Y-48196D01*
X93145Y-48003D01*
X92997Y-47855D01*
X92804Y-47775D01*
X92596Y-47774D01*
X92403Y-47854D01*
X92255Y-48002D01*
X92175Y-48195D01*
X92174Y-48403D01*
X92254Y-48597D01*
X92402Y-48744D01*
X92535Y-48800D01*
X92403Y-48854D01*
X92255Y-49002D01*
X92175Y-49195D01*
X92174Y-49403D01*
X92254Y-49597D01*
X92402Y-49744D01*
X92410Y-49748D01*
X92410Y-50488D01*
X92339Y-50558D01*
X92275Y-50715D01*
X92274Y-50884D01*
X92339Y-51040D01*
X92398Y-51099D01*
X92339Y-51158D01*
X92275Y-51315D01*
X92274Y-51484D01*
X92339Y-51640D01*
X92400Y-51701D01*
X92400Y-53098D01*
X92339Y-53158D01*
X92275Y-53315D01*
X92274Y-53484D01*
X92339Y-53640D01*
X92458Y-53760D01*
X92524Y-53787D01*
X92459Y-53814D01*
X92339Y-53933D01*
X92275Y-54090D01*
X92274Y-54259D01*
X92339Y-54415D01*
X92380Y-54456D01*
X92380Y-55418D01*
X92339Y-55458D01*
X92275Y-55615D01*
X92274Y-55784D01*
X92339Y-55940D01*
X92458Y-56060D01*
X92615Y-56124D01*
X92784Y-56125D01*
X92940Y-56060D01*
X93060Y-55941D01*
X93124Y-55784D01*
X93125Y-55615D01*
X93060Y-55459D01*
X93020Y-55418D01*
X93020Y-54456D01*
X93060Y-54416D01*
X93124Y-54259D01*
X93125Y-54090D01*
X93060Y-53934D01*
X92941Y-53814D01*
X92875Y-53787D01*
X92940Y-53760D01*
X93060Y-53641D01*
X93124Y-53484D01*
X93125Y-53315D01*
X93060Y-53159D01*
X93000Y-53098D01*
X93000Y-51701D01*
X93060Y-51641D01*
X93124Y-51484D01*
X93125Y-51315D01*
X93060Y-51159D01*
X93001Y-51100D01*
X93060Y-51041D01*
X93124Y-50884D01*
X93125Y-50715D01*
X93060Y-50559D01*
X92990Y-50488D01*
X92990Y-49748D01*
X92997Y-49745D01*
X93144Y-49597D01*
X93224Y-49404D01*
X93225Y-49196D01*
X93225Y-66420D01*
X93125Y-66420D01*
X93125Y-64015D01*
X93060Y-63859D01*
X93000Y-63798D01*
X93000Y-62514D01*
X93060Y-62454D01*
X93124Y-62297D01*
X93125Y-62128D01*
X93060Y-61972D01*
X92941Y-61852D01*
X92829Y-61806D01*
X92940Y-61760D01*
X93060Y-61641D01*
X93124Y-61484D01*
X93125Y-61315D01*
X93060Y-61159D01*
X93040Y-61139D01*
X93040Y-59756D01*
X93060Y-59736D01*
X93124Y-59579D01*
X93125Y-59410D01*
X93060Y-59254D01*
X93003Y-59197D01*
X93060Y-59141D01*
X93124Y-58984D01*
X93125Y-58815D01*
X93060Y-58659D01*
X93030Y-58629D01*
X93030Y-57321D01*
X93060Y-57291D01*
X93124Y-57134D01*
X93125Y-56965D01*
X93060Y-56809D01*
X92941Y-56689D01*
X92784Y-56625D01*
X92615Y-56624D01*
X92459Y-56689D01*
X92339Y-56808D01*
X92275Y-56965D01*
X92274Y-57134D01*
X92339Y-57290D01*
X92370Y-57320D01*
X92370Y-58628D01*
X92339Y-58658D01*
X92275Y-58815D01*
X92274Y-58984D01*
X92339Y-59140D01*
X92396Y-59197D01*
X92339Y-59253D01*
X92275Y-59410D01*
X92274Y-59579D01*
X92339Y-59735D01*
X92360Y-59755D01*
X92360Y-61138D01*
X92339Y-61158D01*
X92275Y-61315D01*
X92274Y-61484D01*
X92339Y-61640D01*
X92458Y-61760D01*
X92570Y-61806D01*
X92459Y-61852D01*
X92339Y-61971D01*
X92275Y-62128D01*
X92274Y-62297D01*
X92339Y-62453D01*
X92400Y-62514D01*
X92400Y-63798D01*
X92339Y-63858D01*
X92275Y-64015D01*
X92274Y-64184D01*
X92339Y-64340D01*
X92458Y-64460D01*
X92615Y-64524D01*
X92784Y-64525D01*
X92940Y-64460D01*
X93060Y-64341D01*
X93124Y-64184D01*
X93125Y-64015D01*
X93125Y-66420D01*
X91125Y-66420D01*
X91125Y-49196D01*
X91045Y-49003D01*
X90897Y-48855D01*
X90764Y-48799D01*
X90897Y-48745D01*
X91044Y-48597D01*
X91124Y-48404D01*
X91125Y-48196D01*
X91045Y-48003D01*
X90897Y-47855D01*
X90704Y-47775D01*
X90496Y-47774D01*
X90303Y-47854D01*
X90155Y-48002D01*
X90075Y-48195D01*
X90074Y-48403D01*
X90154Y-48597D01*
X90302Y-48744D01*
X90435Y-48800D01*
X90303Y-48854D01*
X90155Y-49002D01*
X90075Y-49195D01*
X90074Y-49403D01*
X90154Y-49597D01*
X90302Y-49744D01*
X90495Y-49824D01*
X90703Y-49825D01*
X90897Y-49745D01*
X91044Y-49597D01*
X91124Y-49404D01*
X91125Y-49196D01*
X91125Y-66420D01*
X89025Y-66420D01*
X89025Y-49196D01*
X88945Y-49003D01*
X88797Y-48855D01*
X88664Y-48799D01*
X88797Y-48745D01*
X88944Y-48597D01*
X89024Y-48404D01*
X89025Y-48196D01*
X88945Y-48003D01*
X88797Y-47855D01*
X88604Y-47775D01*
X88396Y-47774D01*
X88203Y-47854D01*
X88055Y-48002D01*
X87975Y-48195D01*
X87974Y-48403D01*
X88054Y-48597D01*
X88202Y-48744D01*
X88335Y-48800D01*
X88203Y-48854D01*
X88055Y-49002D01*
X87975Y-49195D01*
X87974Y-49403D01*
X88054Y-49597D01*
X88202Y-49744D01*
X88395Y-49824D01*
X88603Y-49825D01*
X88797Y-49745D01*
X88944Y-49597D01*
X89024Y-49404D01*
X89025Y-49196D01*
X89025Y-66420D01*
X86725Y-66420D01*
X86725Y-49196D01*
X86645Y-49003D01*
X86497Y-48855D01*
X86364Y-48799D01*
X86497Y-48745D01*
X86644Y-48597D01*
X86724Y-48404D01*
X86725Y-48196D01*
X86645Y-48003D01*
X86497Y-47855D01*
X86304Y-47775D01*
X86096Y-47774D01*
X85903Y-47854D01*
X85755Y-48002D01*
X85675Y-48195D01*
X85674Y-48403D01*
X85754Y-48597D01*
X85902Y-48744D01*
X86035Y-48800D01*
X85903Y-48854D01*
X85755Y-49002D01*
X85675Y-49195D01*
X85674Y-49403D01*
X85754Y-49597D01*
X85902Y-49744D01*
X86095Y-49824D01*
X86303Y-49825D01*
X86497Y-49745D01*
X86644Y-49597D01*
X86724Y-49404D01*
X86725Y-49196D01*
X86725Y-66420D01*
X84746Y-66420D01*
X84746Y-50711D01*
X84746Y-49711D01*
X84746Y-48711D01*
X84679Y-48547D01*
X84553Y-48421D01*
X84389Y-48353D01*
X84211Y-48353D01*
X84047Y-48420D01*
X83921Y-48546D01*
X83853Y-48710D01*
X83853Y-48888D01*
X83920Y-49052D01*
X84046Y-49178D01*
X84210Y-49246D01*
X84388Y-49246D01*
X84552Y-49179D01*
X84678Y-49053D01*
X84746Y-48889D01*
X84746Y-48711D01*
X84746Y-49711D01*
X84679Y-49547D01*
X84553Y-49421D01*
X84389Y-49353D01*
X84211Y-49353D01*
X84047Y-49420D01*
X83921Y-49546D01*
X83853Y-49710D01*
X83853Y-49888D01*
X83920Y-50052D01*
X84046Y-50178D01*
X84210Y-50246D01*
X84388Y-50246D01*
X84552Y-50179D01*
X84678Y-50053D01*
X84746Y-49889D01*
X84746Y-49711D01*
X84746Y-50711D01*
X84679Y-50547D01*
X84553Y-50421D01*
X84389Y-50353D01*
X84211Y-50353D01*
X84047Y-50420D01*
X83921Y-50546D01*
X83853Y-50710D01*
X83853Y-50888D01*
X83920Y-51052D01*
X84046Y-51178D01*
X84210Y-51246D01*
X84388Y-51246D01*
X84552Y-51179D01*
X84678Y-51053D01*
X84746Y-50889D01*
X84746Y-50711D01*
X84746Y-66420D01*
X76579Y-66420D01*
X76579Y-51111D01*
X76646Y-51178D01*
X76810Y-51246D01*
X76988Y-51246D01*
X77152Y-51179D01*
X77278Y-51053D01*
X77346Y-50889D01*
X77346Y-50711D01*
X77279Y-50547D01*
X77153Y-50421D01*
X76989Y-50353D01*
X76811Y-50353D01*
X76647Y-50420D01*
X76579Y-50488D01*
X76579Y-50111D01*
X76646Y-50178D01*
X76810Y-50246D01*
X76988Y-50246D01*
X77152Y-50179D01*
X77231Y-50100D01*
X77350Y-50100D01*
X77350Y-51150D01*
X77949Y-51150D01*
X78000Y-51201D01*
X78000Y-53300D01*
X78022Y-53414D01*
X78087Y-53512D01*
X78100Y-53524D01*
X78100Y-55300D01*
X77701Y-55300D01*
X77641Y-55239D01*
X77484Y-55175D01*
X77315Y-55174D01*
X77159Y-55239D01*
X77039Y-55358D01*
X76975Y-55515D01*
X76974Y-55684D01*
X77039Y-55840D01*
X77048Y-55849D01*
X77039Y-55858D01*
X76975Y-56015D01*
X76974Y-56184D01*
X77039Y-56340D01*
X77048Y-56349D01*
X77039Y-56358D01*
X76975Y-56515D01*
X76974Y-56684D01*
X77039Y-56840D01*
X77158Y-56960D01*
X77315Y-57024D01*
X77484Y-57025D01*
X77640Y-56960D01*
X77701Y-56900D01*
X79298Y-56900D01*
X79358Y-56960D01*
X79515Y-57024D01*
X79684Y-57025D01*
X79840Y-56960D01*
X79960Y-56841D01*
X80024Y-56684D01*
X80025Y-56515D01*
X79960Y-56359D01*
X79951Y-56350D01*
X79960Y-56341D01*
X80024Y-56184D01*
X80025Y-56015D01*
X79977Y-55900D01*
X81222Y-55900D01*
X81175Y-56015D01*
X81174Y-56184D01*
X81239Y-56340D01*
X81358Y-56460D01*
X81515Y-56524D01*
X81684Y-56525D01*
X81840Y-56460D01*
X81901Y-56400D01*
X83498Y-56400D01*
X83558Y-56460D01*
X83715Y-56524D01*
X83884Y-56525D01*
X84040Y-56460D01*
X84160Y-56341D01*
X84224Y-56184D01*
X84225Y-56015D01*
X84160Y-55859D01*
X84041Y-55739D01*
X83884Y-55675D01*
X83715Y-55674D01*
X83559Y-55739D01*
X83498Y-55800D01*
X81977Y-55800D01*
X82024Y-55684D01*
X82025Y-55515D01*
X81977Y-55400D01*
X83503Y-55400D01*
X83563Y-55460D01*
X83719Y-55524D01*
X83888Y-55525D01*
X84045Y-55460D01*
X84164Y-55341D01*
X84229Y-55184D01*
X84229Y-55015D01*
X84165Y-54859D01*
X84045Y-54739D01*
X83889Y-54675D01*
X83720Y-54674D01*
X83564Y-54739D01*
X83503Y-54800D01*
X81600Y-54800D01*
X81485Y-54822D01*
X81387Y-54887D01*
X81322Y-54985D01*
X81300Y-55100D01*
X81322Y-55214D01*
X81347Y-55251D01*
X81298Y-55300D01*
X79981Y-55300D01*
X80029Y-55184D01*
X80029Y-55099D01*
X82812Y-52316D01*
X82812Y-52316D01*
X82877Y-52219D01*
X82899Y-52104D01*
X82900Y-52104D01*
X82900Y-51150D01*
X83850Y-51150D01*
X83850Y-47774D01*
X83853Y-47777D01*
X83853Y-47888D01*
X83920Y-48052D01*
X84046Y-48178D01*
X84210Y-48246D01*
X84388Y-48246D01*
X84552Y-48179D01*
X84678Y-48053D01*
X84746Y-47889D01*
X84746Y-47711D01*
X84679Y-47547D01*
X84553Y-47421D01*
X84389Y-47353D01*
X84277Y-47353D01*
X83903Y-46979D01*
X96020Y-46979D01*
X96020Y-66420D01*
G54D10*
G36*
X79250Y-49500D02*
X77650Y-49500D01*
X77650Y-47474D01*
X77724Y-47400D01*
X79250Y-47400D01*
X79250Y-49500D01*
X79250Y-49500D01*
G37*
G54D14*
X79250Y-49500D02*
X77650Y-49500D01*
X77650Y-47474D01*
X77724Y-47400D01*
X79250Y-47400D01*
X79250Y-49500D01*
G54D10*
G36*
X83350Y-50750D02*
X81850Y-50750D01*
X81850Y-46979D01*
X83350Y-46979D01*
X83350Y-50750D01*
X83350Y-50750D01*
G37*
G54D14*
X83350Y-50750D02*
X81850Y-50750D01*
X81850Y-46979D01*
X83350Y-46979D01*
X83350Y-50750D01*
M02*
