M48
INCH,TZ
T1C0.024
T2C0.025
T3C0.032
%
G90
G05
T1
X76900Y-47800
X76900Y-48800
X76900Y-49800
X76900Y-50800
X80000Y-47800
X80000Y-48800
X80000Y-49800
X80000Y-50800
X81200Y-47800
X81200Y-48800
X81200Y-49800
X81200Y-50800
X84300Y-47800
X84300Y-48800
X84300Y-49800
X84300Y-50800
T2
X76900Y-47800
X76900Y-48800
X76900Y-49800
X77400Y-55100
X77400Y-55600
X77400Y-56100
X77400Y-56600
X78300Y-50900
X78400Y-48800
X79600Y-56100
X79600Y-56600
X79605Y-55100
X80000Y-49800
X81000Y-55100
X81100Y-47000
X81200Y-47800
X81200Y-48800
X81600Y-55600
X81600Y-56100
X83800Y-56100
X83805Y-55100
X84300Y-47800
X86200Y-65259
X88500Y-65259
X90600Y-65259
X92700Y-49300
X92700Y-50800
X92700Y-51400
X92700Y-53400
X92700Y-54175
X92700Y-55700
X92700Y-57050
X92700Y-58900
X92700Y-59495
X92700Y-61400
X92700Y-62213
X92700Y-64100
X92700Y-65259
X94900Y-49300
X94900Y-50800
X94900Y-51400
X94900Y-53400
X94900Y-54175
X94900Y-57050
X94900Y-58900
X94900Y-59495
X94900Y-61300
X94900Y-62213
X94900Y-64100
X94900Y-65259
T3
X86200Y-48300
X86200Y-49300
X88500Y-48300
X88500Y-49300
X90600Y-48300
X90600Y-49300
X92700Y-48300
X92700Y-49300
X94900Y-48300
X94900Y-49300
T0
M30
